<?xml version="1.0" encoding="utf-8"?>
<!-- Generator: Adobe Illustrator 24.1.2, SVG Export Plug-In . SVG Version: 6.00 Build 0)  -->
<svg version="1.1" id="Calque_1" xmlns="http://www.w3.org/2000/svg" xmlns:xlink="http://www.w3.org/1999/xlink" x="0px" y="0px"
	 viewBox="0 0 375 313" style="enable-background:new 0 0 375 313;" xml:space="preserve">
<style type="text/css">
	.st0{fill:#FFFFFF;}
</style>
<path class="st0" d="M278,34.6c-24.1,6.3-12.8,43,11,35.8c12.4-3.7,16.9-20.2,9-30.2C293.7,34.7,284.5,32.9,278,34.6 M114,112
	c8.9,7.3,24.7,3.5,35,2c20.5-2.9,40.4-11.3,60-17.8c12-4,23.1-8.7,36-6.9c9.9,1.4,17.7,7,24.5,14c6,6.1,11.2,15.8,21.5,11.7
	c14-5.7,6.6-20.9-1-27.9c-14.5-13.4-31.9-19.2-51.4-17.8c-17,1.2-31.2,10.5-45.6,18.6c-14,7.9-28.7,14.9-44,20
	C137.6,111.7,126,114.9,114,112 M77,110c5.9,8.4,15.8,14.9,25,19.2c20.4,9.6,44.7,13.2,67,9.3c18.8-3.3,38.6-12.6,58-9.6
	c9.6,1.5,18.7,9,23.7,17.1c2.8,4.6,2.9,14.5,10.3,13.6c3.3-0.4,5.9-2.5,8.5-4.4c11.6-8.7,14.1-23.2,4.8-35
	c-4.5-5.7-12.7-8.9-19.3-11.5c-20.1-7.9-45.1-2.6-65,4.2c-7.1,2.4-13.8,6.3-21,8.4c-21.6,6.3-44.2,8.9-66,1.7
	C93.6,119.8,85.5,114.8,77,110 M207,139c-10.9,17-3.3,38,12,49.7c24.2,18.5,57.6,19.4,86,26.9c5.3,1.4,10.6,3.4,15,6.7
	c3.5,2.6,5.8,6.4,10,7.7c0.3-5.6,0.8-12.3-0.9-17.8c-3-9.7-11.9-17.9-20.1-23.2c-17.3-11.3-38.1-16.6-58-21.5
	c-17.6-4.4-36.8-7.9-42-28.5H207 M145,257c25.9-0.1,48.8-20.3,65.6-37.8c6.1-6.4,13.5-13.6,16.4-22.2c-11.8-6.7-24.3-16.9-27-31
	c-14.9,4.7-26.8,18.3-31.2,33c-2.4,8.1-3,17.1-5.9,25c-2.5,6.5-4.7,14.1-8.3,20C151.7,248.7,147.3,252,145,257 M289,217
	c5,8.8,12.8,16,19,24c12.2,15.7,20.6,33,43,34c-3.3-7.2-8-13.3-11.9-20c-4.7-8-8.9-17.1-15.3-23.9C315.1,221.7,301.5,217,289,217
	 M52,277c8.1-6.3,14.5-13.3,25-16.1c12.7-3.3,26-3.9,39-4.8c7.3-0.5,14.9,0.3,22-1.9c9.6-2.9,16.7-11.7,19.1-21.2
	c1.2-4.6,1.9-9.2,1.9-14c-8.6,4-14.4,9.9-24,12.3c-12.3,3.1-25.5,4.3-38,6.3c-11.8,1.9-21.8,3.4-30.7,12.6
	c-4.1,4.3-7.4,9.3-9.9,14.6C54.4,269.1,52.3,272.2,52,277z"/>
</svg>
