<?xml version="1.0" encoding="utf-8"?>
<!-- Generator: Adobe Illustrator 24.1.2, SVG Export Plug-In . SVG Version: 6.00 Build 0)  -->
<svg version="1.1" id="Calque_1" xmlns="http://www.w3.org/2000/svg" xmlns:xlink="http://www.w3.org/1999/xlink" x="0px" y="0px"
	 viewBox="0 0 731 200" style="enable-background:new 0 0 731 200;" xml:space="preserve">
<style type="text/css">
	.st0{fill:#FFFFFF;}
</style>
<g transform="translate(0.000000,1200.000000) scale(0.100000,-0.100000)">
	<path class="st0" d="M250,10970v-800h3435h3435v800v800H3685H250V10970z M7070,10970v-750H3680H290v750v750h3390h3390V10970z"/>
	<path class="st0" d="M1517,11506c-20-8-53-26-72-40c-26-20-54-29-115-37c-91-13-398-9-419,5c-12,7-9,14,15,34l29,24l-48-5
		c-62-6-89-30-85-75c4-47,36-69,123-83c66-10,208-7,315,8c43,6,44,5,30-14c-8-11-52-72-97-135l-82-115l-122-6c-90-5-126-10-139-22
		c-21-19-56-82-49-89c3-3,54-1,114,4c61,4,112,7,114,4c2-2-34-61-81-132c-111-166-123-189-107-208c6-8,28-14,48-14h37l115,180
		l114,180h71c68,0,72,1,95,31c13,18,24,36,24,42c0,14-38,25-88,26l-39,1l58,83c32,45,80,111,107,147c47,63,50,65,120,83
		c67,16,135,56,144,84c7,19-35,53-64,53C1567,11519,1538,11513,1517,11506z"/>
	<path class="st0" d="M5641,11472c-74-79-307-476-361-615c-37-94-103-171-143-165c-19,3-22,8-20,40c3,46,51,164,99,244
		c19,32,33,65,32,73c-4,22-61,26-78,6c-12-14-15-14-32,2c-23,21-99,21-148,1c-56-24-156-105-196-159c-91-124-97-255-13-290
		c51-21,120,12,212,99l37,36v-47c0-103,101-129,191-50c15,12,20,10,48-18c28-27,37-31,68-26c105,17,267,157,331,286
		c43,86,45,159,6,190c-29,23-78,27-133,11c-19-5-37-8-39-5c-5,4,105,189,190,319c32,48,55,92,52,97s-19,9-36,9
		C5685,11510,5668,11500,5641,11472z M5123,10998c-5-7-37-49-70-93c-72-96-195-205-230-205c-43,0,30,132,118,215c48,45,83,69,116,79
		C5119,11013,5135,11014,5123,10998z M5600,10972c0-94-200-303-265-278c-14,5-16,14-11,39c9,48,108,248,121,244c5-3,30,4,55,14
		s57,18,73,18C5598,11010,5600,11007,5600,10972z"/>
	<path class="st0" d="M4405,11464c-91-55-156-84-193-84c-39,0-75,17-67,31c13,20-37,8-60-16c-86-85,67-153,202-90l53,24l-91-136
		l-91-136l-90,6l-90,6l5-35c8-50,23-64,68-64c22,0,39-4,39-10c0-5-35-63-78-127c-121-184-128-215-46-211l46,3l101,170l102,170l173,3
		c94,1,172,0,172-2c0-3-32-58-70-122c-92-152-124-214-113-225c5-5,31-6,59-3l50,6l118,197c65,108,182,294,259,415
		c151,236,151,236,71,236c-52,0-55-3-194-222l-112-178h-169c-93,0-169,2-169,5c0,2,54,87,120,189c66,101,120,188,120,194
		c0,13-34,42-51,42C4471,11500,4438,11484,4405,11464z"/>
	<path class="st0" d="M1953,11380c-18-8-63-59-91-106c-4-6-40-14-79-17c-71-6-73-5-73,18c0,21-16,35-40,35c-5,0-25-14-45-31
		c-27-24-35-39-35-65c0-29,5-36,37-49c27-11,53-14,95-9c32,4,58,4,58,1s-27-50-60-106c-33-55-79-140-104-188c-42-84-71-120-126-156
		c-30-21-79-22-86-3c-3,8,32,81,79,163c110,192,108,189,101,208c-19,49-70,36-139-34c-35-37-38-44-27-61c11-18,6-31-38-106
		c-84-142-96-188-62-230c48-60,143-58,223,5l26,20l21-29c29-39,81-49,144-26c26,9,58,14,70,11c30-7,29-7,121,107
		c76,95,249,268,268,268c15,0,11-10-41-91c-106-165-117-254-38-295c40-21,88-13,140,21l40,27l22-21c70-65,211-53,329,28l47,32v-29
		c0-50,31-67,119-67c62,0,87,6,137,29c73,33,121,79,130,124c5,27,2,36-28,66c-28,28-49,37-131,56c-53,12-97,26-97,31
		c0,27,131,106,193,116c31,5,34,3,33-18s3-24,38-23c65,2,115,75,82,119c-32,44-199,13-316-58c-65-39-109-91-117-140
		c-8-54,22-79,135-106c50-13,96-29,102-36c15-18-15-40-79-59c-90-26-131-18-131,26c0,13-8,18-25,18c-20,0-25,5-25,25
		c0,14-4,25-10,25c-5,0-38-21-72-46c-79-58-115-74-172-74c-45,0-76,18-76,45c0,17,59,61,131,97c67,33,73,40,64,69c-6,19-13,21-49,16
		c-23-3-50-9-60-13c-14-5-17-3-14,12c3,18,119,104,139,104c5,0,9-9,9-20c0-33,47-25,87,15c93,93-35,127-189,50
		c-112-56-166-144-123-201c19-25,19-34,0-34c-9,0-45-27-80-60c-84-78-133-96-148-55c-8,18,31,97,100,202c75,113,87,143,67,172
		c-33,47-118,20-217-69l-57-52l29,49c16,26,32,58,36,71c6,20,3,22-28,22c-19,0-45-8-57-18c-11-9-63-86-113-171
		c-78-130-100-160-141-188c-32-22-59-33-75-31c-23,3-26,7-24,42c3,40,69,174,172,348l51,86l82,7c121,11,146,31,91,75
		c-21,17-35,20-65,15c-21-4-38-4-38-1s14,27,30,53c28,44,29,49,13,60C1984,11392,1983,11392,1953,11380z"/>
	<path class="st0" d="M6334,11382c-13-2-40-28-65-63c-42-57-45-59-89-59c-25,0-54-3-65-6c-16-4-23,2-32,27c-11,28-15,31-40,25
		c-39-9-83-60-83-95c0-41,63-64,146-55l58,7l-17-26c-42-65-121-204-152-269c-51-106-127-178-190-178c-42,0-31,32,65,201
		c50,87,90,164,90,172s-9,22-19,31c-18,16-22,17-54,2c-18-9-51-34-72-56c-35-36-38-42-26-63c11-21,8-31-30-93c-55-90-89-163-89-192
		c0-14,15-39,35-59c34-34,38-35,90-31c38,3,69,14,104,36c47,29,50,30,56,11c8-25,55-49,95-49c32,0,78,20,119,52c24,18,24,18,35-4
		c18-37,54-49,126-45c158,10,305,133,247,208c-23,30-63,48-146,68c-46,11-88,24-93,29c-21,21,146,122,199,122c18,0,22-5,20-22
		c-5-51,101-22,123,33c18,44,1,76-45,85c-73,13-254-51-330-118c-45-39-72-107-54-139c19-36,37-46,129-69c47-12,92-25,100-31
		c38-24-102-88-171-77c-26,4-35,18-49,76l-11,43l-52-43c-76-65-98-78-129-78c-25,0-28,3-28,35c0,38,73,187,168,345l57,95l90,12
		c50,6,93,12,96,12c19,2,14,31-8,55s-30,27-64,21c-21-4-39-3-39,2c0,4,11,26,25,48c13,22,25,45,25,51
		C6390,11380,6364,11387,6334,11382z"/>
	<path class="st0" d="M3453,11115c-126-35-252-124-269-189c-17-68,13-95,141-129c100-27,117-45,66-71c-41-22-127-39-155-32
		c-14,3-26,16-30,31c-9,37-43,33-63-9c-52-110,97-155,259-77c82,39,118,79,118,130c0,58-43,87-172,116c-48,10-78,22-78,30
		c0,17,95,81,149,100c56,19,88,20,72,2c-8-10-7-17,1-25c18-18,52-14,89,11c26,18,35,31,37,58c2,23-2,40-12,49
		C3582,11129,3511,11132,3453,11115z"/>
</g>
</svg>
