<?xml version="1.0" encoding="utf-8"?>
<!-- Generator: Adobe Illustrator 24.1.2, SVG Export Plug-In . SVG Version: 6.00 Build 0)  -->
<svg version="1.1" id="Calque_1" xmlns="http://www.w3.org/2000/svg" xmlns:xlink="http://www.w3.org/1999/xlink" x="0px" y="0px"
	 viewBox="0 0 544 542" style="enable-background:new 0 0 544 542;" xml:space="preserve">
<style type="text/css">
	.st0{fill:#1877F2;}
</style>
<path class="st0" d="M538.7,271C538.7,123.7,419.3,4.3,272,4.3C124.7,4.3,5.3,123.7,5.3,271c0,133.1,97.5,243.4,225,263.4V348.1
	h-67.7V271h67.7v-58.8c0-66.8,39.8-103.8,100.7-103.8c29.2,0,59.7,5.2,59.7,5.2v65.6h-33.6c-33.1,0-43.5,20.6-43.5,41.6v50h74
	l-11.8,77.1h-62.1v186.3C441.2,514.4,538.7,404.1,538.7,271"/>
<path class="st0" d="M5.3,4.3"/>
</svg>
